<svg width="1052" height="559" viewBox="0 0 1052 559" fill="none" xmlns="http://www.w3.org/2000/svg">
<path d="M111.311 550.878H50.8577V70H0V4.50445H50.8577H111.311V550.878Z" fill="#EFE9DD"/>
<path d="M321.267 559C276.913 559 244.927 549.18 225.309 529.539C205.691 509.898 195.669 477.376 195.242 431.972C195.029 425.34 195.029 417.56 195.242 408.632C195.456 399.705 195.669 391.415 195.882 383.762H255.801C255.375 393.966 256.015 401.797 255.801 412C255.801 421.948 255.162 435.671 255.801 448.424C256.441 459.648 261.051 480.868 268.301 487.5C275.552 493.877 285.301 508 318.069 508C350.836 508 360.125 493.622 367.801 487.5C375.478 481.123 379.162 460.158 379.801 448.424C380.868 430.314 381.375 414.212 381.801 391C382.228 367.533 381.588 363.283 381.801 336.5L395.801 327.5C390.47 337.958 392.383 335.603 379.801 343C367.433 350.142 305.168 348.562 287.682 348.562C259.321 348.562 235.545 339.634 216.353 321.779C197.375 303.669 187.672 273.825 187.246 232.247C187.033 215.667 186.819 198.577 186.606 180.977C186.606 163.121 186.926 145.521 187.566 128.176C188.632 82.5172 199.401 49.7399 219.872 29.8439C240.556 9.94798 273.395 0 318.388 0C363.169 0 395.155 9.94798 414.346 29.8439C433.751 49.7399 443.88 82.5172 444.733 128.176C446.226 184.803 446.865 237.094 446.652 285.048C446.439 333.002 445.799 381.977 444.733 431.972C443.88 477.376 433.645 509.898 414.026 529.539C394.622 549.18 363.702 559 321.267 559ZM323.301 305.5C339.934 305.5 368.438 297 381.801 285.048C394.319 273.853 389.761 263.5 392.761 236.073C392.761 214.5 393.401 198.681 392.761 177C392.121 155.319 393.401 132.181 392.761 110.5C392.761 84.5 364.994 47 323.301 49C268.801 45 245.761 78 241.761 107C241.548 127.151 242.187 152.849 241.761 173C241.335 192.896 241.121 213.371 241.761 236.073C242.187 248.062 242.761 272.59 253.761 285.048C272.261 306 307.095 305.5 323.301 305.5Z" fill="#EFE9DD"/>
<path d="M738.172 550.878H682.801V394.5H518.429V331.64L635.177 4.50445H738.172V327.431H780.301V394.5H738.172V550.878ZM616.301 194.5L573.301 327.431H676.759L685.801 198.5L694.301 60H657.301L616.301 194.5Z" fill="#EFE9DD"/>
<path d="M1051.13 546H839.754C839.531 531.854 839.195 520.74 838.748 512.656C838.524 504.573 838.3 495.606 838.077 485.754C838.077 475.903 838.3 461.631 838.748 442.938C839.195 413.384 843.445 388.629 851.497 368.673C859.55 348.718 869.951 331.919 882.701 318.279C895.674 304.638 909.542 292.64 924.305 282.283L959.199 259.17C977.54 248.056 989.172 236.31 994.093 223.932C999.237 211.302 1002.37 198.419 1003.49 185.284C1005.5 153.203 1005.5 121.249 1003.49 89.4212C1002.59 75.2755 997.448 64.7925 988.053 57.9722C978.882 51.152 963.561 47.7418 942.087 47.7418C921.733 47.7418 907.082 51.152 898.134 57.9722C889.411 64.7925 884.714 75.2755 884.043 89.4212C883.595 107.103 883.372 124.786 883.372 142.468C883.595 160.15 884.266 177.958 885.385 195.893H838.748C838.077 178.716 837.518 161.539 837.07 144.362C836.623 126.933 836.735 111.65 837.406 98.5149C838.971 63.1506 847.919 37.8904 864.247 22.7342C880.576 7.57807 906.858 0 943.094 0C981.119 0 1008.07 7.57807 1023.95 22.7342C1040.06 37.8904 1048.89 63.1506 1050.46 98.5149C1051.35 110.892 1051.8 125.543 1051.8 142.468C1051.8 159.139 1051.35 173.285 1050.46 184.905C1048.22 216.733 1040.95 242.119 1028.65 261.065C1016.57 279.757 998.119 296.934 973.291 312.595L937.055 336.845C920.055 346.949 907.305 361.853 898.806 381.556C890.529 401.006 886.391 421.467 886.391 442.938V494.848H1051.13V546Z" fill="#EFE9DD"/>
</svg>
