<svg width="1050" height="559" viewBox="0 0 1050 559" fill="none" xmlns="http://www.w3.org/2000/svg">
<path d="M111.311 550.878H50.8577V70H0V4.50445H50.8577H111.311V550.878Z" fill="#EFE9DD"/>
<path d="M321.267 559C276.913 559 244.927 549.18 225.309 529.539C205.691 509.898 195.669 477.376 195.242 431.972C195.029 425.34 195.029 417.56 195.242 408.632C195.456 399.705 195.669 391.415 195.882 383.762H255.801C255.375 393.966 256.015 401.797 255.801 412C255.801 421.948 255.162 435.671 255.801 448.424C256.441 459.648 261.051 480.868 268.301 487.5C275.552 493.877 285.301 508 318.069 508C350.836 508 360.125 493.622 367.801 487.5C375.478 481.123 379.162 460.158 379.801 448.424C380.868 430.314 381.375 414.212 381.801 391C382.228 367.533 381.588 363.283 381.801 336.5L395.801 327.5C390.47 337.958 392.383 335.603 379.801 343C367.433 350.142 305.168 348.562 287.682 348.562C259.321 348.562 235.545 339.634 216.353 321.779C197.375 303.669 187.672 273.825 187.246 232.247C187.033 215.667 186.819 198.577 186.606 180.977C186.606 163.121 186.926 145.521 187.566 128.176C188.632 82.5172 199.401 49.7399 219.872 29.8439C240.556 9.94798 273.395 0 318.388 0C363.169 0 395.155 9.94798 414.346 29.8439C433.751 49.7399 443.88 82.5172 444.733 128.176C446.226 184.803 446.865 237.094 446.652 285.048C446.439 333.002 445.799 381.977 444.733 431.972C443.88 477.376 433.645 509.898 414.026 529.539C394.622 549.18 363.702 559 321.267 559ZM323.301 305.5C339.934 305.5 368.438 297 381.801 285.048C394.319 273.853 389.761 263.5 392.761 236.073C392.761 214.5 393.401 198.681 392.761 177C392.121 155.319 393.401 132.181 392.761 110.5C392.761 84.5 364.994 47 323.301 49C268.801 45 245.761 78 241.761 107C241.548 127.151 242.187 152.849 241.761 173C241.335 192.896 241.121 213.371 241.761 236.073C242.187 248.062 242.761 272.59 253.761 285.048C272.261 306 307.095 305.5 323.301 305.5Z" fill="#EFE9DD"/>
<path d="M738.172 550.878H682.801V394.5H518.429V331.64L635.177 4.50445H738.172V327.431H780.301V394.5H738.172V550.878ZM616.301 194.5L573.301 327.431H676.759L685.801 198.5L694.301 60H657.301L616.301 194.5Z" fill="#EFE9DD"/>
<path d="M949.21 550C915.322 550 890.73 542.239 875.432 526.718C860.134 511.196 852.001 485.623 851.033 450C850.259 435.242 849.871 421.247 849.871 408.015C849.871 394.529 850.259 377.863 851.033 358.015H891.117V456.87C891.117 472.137 895.668 483.461 904.769 490.84C913.87 497.964 928.393 501.527 948.338 501.527C985.324 501.527 1003.72 486.641 1003.53 456.87C1005.66 415.14 1005.66 374.046 1003.53 333.588C1002.75 317.048 997.329 304.198 987.26 295.038C977.384 285.878 960.441 281.425 936.429 281.679H875.432V234L1002.95 51.5267H849V0H1050V48.4733L943.11 231.679C978.74 233.461 1004.2 242.239 1019.5 258.015C1034.99 273.791 1043.13 298.855 1043.9 333.206C1045.26 357.888 1045.84 379.771 1045.64 398.855C1045.64 417.939 1045.06 434.987 1043.9 450C1042.54 485.623 1034.51 511.196 1019.79 526.718C1005.08 542.239 981.548 550 949.21 550Z" fill="#EFE9DD"/>
</svg>
