<svg width="1093" height="559" viewBox="0 0 1093 559" fill="none" xmlns="http://www.w3.org/2000/svg">
<path d="M111.311 550.878H50.8577V70H0V4.50445H50.8577H111.311V550.878Z" fill="#EFE9DD"/>
<path d="M321.267 559C276.913 559 244.927 549.18 225.309 529.539C205.691 509.898 195.669 477.376 195.242 431.972C195.029 425.34 195.029 417.56 195.242 408.632C195.456 399.705 195.669 391.415 195.882 383.762H255.801C255.375 393.966 256.015 401.797 255.801 412C255.801 421.948 255.162 435.671 255.801 448.424C256.441 459.648 261.051 480.868 268.301 487.5C275.552 493.877 285.301 508 318.069 508C350.836 508 360.125 493.622 367.801 487.5C375.478 481.123 379.162 460.158 379.801 448.424C380.868 430.314 381.375 414.212 381.801 391C382.228 367.533 381.588 363.283 381.801 336.5L395.801 327.5C390.47 337.958 392.383 335.603 379.801 343C367.433 350.142 305.168 348.562 287.682 348.562C259.321 348.562 235.545 339.634 216.353 321.779C197.375 303.669 187.672 273.825 187.246 232.247C187.033 215.667 186.819 198.577 186.606 180.977C186.606 163.121 186.926 145.521 187.566 128.176C188.632 82.5172 199.401 49.7399 219.872 29.8439C240.556 9.94798 273.395 0 318.388 0C363.169 0 395.155 9.94798 414.346 29.8439C433.751 49.7399 443.88 82.5172 444.733 128.176C446.226 184.803 446.865 237.094 446.652 285.048C446.439 333.002 445.799 381.977 444.733 431.972C443.88 477.376 433.645 509.898 414.026 529.539C394.622 549.18 363.702 559 321.267 559ZM323.301 305.5C339.934 305.5 368.438 297 381.801 285.048C394.319 273.853 389.761 263.5 392.761 236.073C392.761 214.5 393.401 198.681 392.761 177C392.121 155.319 393.401 132.181 392.761 110.5C392.761 84.5 364.994 47 323.301 49C268.801 45 245.761 78 241.761 107C241.548 127.151 242.187 152.849 241.761 173C241.335 192.896 241.121 213.371 241.761 236.073C242.187 248.062 242.761 272.59 253.761 285.048C272.261 306 307.095 305.5 323.301 305.5Z" fill="#EFE9DD"/>
<path d="M738.172 550.878H682.801V394.5H518.429V331.64L635.177 4.50445H738.172V327.431H780.301V394.5H738.172V550.878ZM616.301 194.5L573.301 327.431H676.759L685.801 198.5L694.301 60H657.301L616.301 194.5Z" fill="#EFE9DD"/>
<path d="M961.319 551C921.964 551 893.478 543.225 875.859 527.675C858.241 512.125 848.86 486.506 847.716 450.818C846.801 434.249 846.229 418.699 846 404.169C846 389.384 846.458 374.216 847.373 358.666H895.079C894.393 374.216 893.935 390.913 893.706 408.757C893.706 426.601 894.278 442.916 895.422 457.701C896.338 472.996 901.6 484.34 911.21 491.732C920.82 498.87 936.722 502.439 958.917 502.439C980.882 502.439 996.555 498.87 1005.94 491.732C1015.55 484.34 1020.92 472.996 1022.07 457.701C1025.5 405.443 1025.84 353.44 1023.1 301.693C1022.18 286.907 1017.26 276.074 1008.34 269.191C999.644 262.308 985.458 258.867 965.781 258.867C945.875 258.867 930.201 262.818 918.761 270.72C907.32 278.368 901.371 288.947 900.914 302.457H854.923V0H1067.37V51.6204H902.63V240.895C907.664 232.228 919.06 223.363 930.5 217.5C942.169 211.637 966.124 210.305 982.598 210.305C1012.11 210.305 1033.97 218.08 1048.15 233.63C1062.34 249.18 1069.89 271.358 1070.8 300.163C1072.63 327.949 1073.32 354.078 1072.86 378.55C1072.63 402.767 1071.6 426.856 1069.77 450.818C1067.71 486.506 1058.33 512.125 1041.63 527.675C1024.93 543.225 998.157 551 961.319 551Z" fill="#EFE9DD"/>
</svg>
