<svg width="718" height="687" viewBox="0 0 718 687" fill="none" xmlns="http://www.w3.org/2000/svg">
<path d="M34.3319 46C34.3319 46 748.591 92.2594 714.84 238.041C681.09 383.823 -1.07927 268.141 34.3319 456.571C69.743 645 477.227 645 477.227 645" stroke="#AA0B0F" stroke-width="3" stroke-linecap="round"/>
<path d="M482 603L492.369 630.729L521.944 632.021L498.777 650.451L506.687 678.979L482 662.64L457.313 678.979L465.223 650.451L442.056 632.021L471.631 630.729L482 603Z" fill="#AA0B0F"/>
<path d="M49.8226 4.007L57.4983 32.5987L86.816 36.7068L61.9956 52.8422L67.1482 81.9944L44.1326 63.375L17.9995 77.2839L28.5954 49.641L7.29164 29.085L36.8559 30.6202L49.8226 4.007Z" fill="#AA0B0F"/>
<path d="M228.72 42.1576L233.32 58.8026L250.439 61.0729L236.031 70.5916L239.161 87.5745L225.656 76.8124L210.472 85.0381L216.534 68.868L204.019 56.9689L221.27 57.7373L228.72 42.1576Z" fill="#AA0B0F"/>
<path d="M547.161 97.9897L548.651 115.194L565.07 120.546L549.168 127.28L549.152 144.549L537.834 131.506L521.405 136.827L530.312 122.032L520.175 108.052L536.998 111.951L547.161 97.9897Z" fill="#AA0B0F"/>
<path d="M612.887 279.888L623.067 293.837L639.885 289.918L629.764 303.911L638.688 318.695L622.253 313.393L610.95 326.449L610.914 309.18L595.004 302.465L611.417 297.094L612.887 279.888Z" fill="#AA0B0F"/>
<path d="M226.427 321.348L234.542 336.592L251.745 335.079L239.755 347.507L246.51 363.4L230.985 355.838L217.957 367.174L220.351 350.072L205.545 341.184L222.55 338.176L226.427 321.348Z" fill="#AA0B0F"/>
<path d="M206.338 579.909L207.565 597.135L223.9 602.737L207.897 609.227L207.617 626.494L196.499 613.279L179.991 618.348L189.123 603.691L179.201 589.558L195.962 593.714L206.338 579.909Z" fill="#AA0B0F"/>
</svg>
