<svg width="1238" height="949" viewBox="0 0 1238 949" fill="none" xmlns="http://www.w3.org/2000/svg">
<path d="M212.501 204.5C212.501 204.5 1000.38 263.963 1040.5 418.358C1080.61 572.754 276.112 616.295 347.307 729.648C418.501 843 828.501 926 828.501 926" stroke="#8D0307" stroke-width="3"/>
<path d="M335.771 769.163C577.435 887.783 618.921 928.394 585.597 946.424" stroke="#8D0307" stroke-width="3"/>
<path d="M401.001 763.278C597.36 863.413 664.074 860.708 693.05 813.112" stroke="#8D0307" stroke-width="3"/>
<path d="M290.922 81.4826L268.715 186.077L356.314 247.394L249.976 258.595L218.731 360.854L175.217 263.182L68.3075 265.066L147.753 193.5L112.924 92.4045L205.538 145.846L290.922 81.4826Z" fill="#AA0B0F"/>
<path d="M1120.92 291.483L1098.72 396.077L1186.32 457.394L1079.98 468.595L1048.73 570.854L1005.22 473.182L898.309 475.066L977.755 403.5L942.926 302.404L1035.54 355.846L1120.92 291.483Z" fill="#8D0307"/>
<path d="M416.923 597.483L394.716 702.077L482.315 763.394L375.977 774.595L344.732 876.854L301.218 779.182L194.308 781.066L273.754 709.5L238.925 608.404L331.539 661.846L416.923 597.483Z" fill="#1B1B1B"/>
</svg>
